<?xml version="1.0" encoding="utf-8"?>
<svg width="1840" height="1380" viewBox="0 0 1000 1000" fill="none" xmlns="http://www.w3.org/2000/svg">
  <path d="M 488.429 372.765 C 488.429 368.329 484.833 364.733 480.396 364.733 C 475.96 364.733 472.364 368.329 472.364 372.765 L 472.364 908.278 C 472.364 912.714 475.96 916.311 480.396 916.311 C 484.833 916.311 488.429 912.714 488.429 908.278 L 488.429 372.765 Z" fill="#2B254E" style=""/>
  <path fill-rule="evenodd" clip-rule="evenodd" d="M 171.586 397.755 L 164.892 428.993 L 123.836 439.703 L 51.096 460.231 L 76.087 428.993 L 35.477 437.026 L 71.178 416.118 L 39.94 416.051 L 7.363 395.077 L 46.187 397.821 C 82.483 402.24 100.631 404.449 100.631 404.449 C 100.631 404.449 82.483 393.292 46.187 370.979 L 171.586 397.755 Z M 826.693 421.853 L 952.091 395.077 C 932.75 408.509 923.084 415.225 923.084 415.225 C 923.084 415.225 934.392 417.434 957 421.853 L 992.701 445.951 L 957 436.199 L 911.035 436.133 L 962.801 461.124 L 905.68 445.951 L 947.182 484.329 L 880.69 453.091 L 833.386 453.091 L 826.693 421.853 Z M 492.013 169.253 L 490.953 144.238 L 481.137 124.997 L 506.942 143.147 L 505.523 120.219 L 476.028 98.713 L 487.832 100.965 L 511.997 115.361 L 519.248 138.738 L 525.626 103.62 L 531.16 132.094 L 545.605 112.534 L 535.994 149.525 L 554.922 127.769 L 538.41 172.841 L 492.013 169.253 Z M 378.059 692.122 L 401.602 707.814 L 396.416 749.617 L 388.513 824.15 L 381.248 813.475 L 378.124 785.807 L 348.225 824.186 L 361.021 775.676 L 341.977 813.475 L 325.019 834.003 L 330.821 808.567 C 342.423 779.414 348.225 764.836 348.225 764.836 C 348.225 764.836 342.423 774.356 330.821 793.394 L 313.028 801.899 L 378.059 692.122 Z M 498.557 711.765 L 525.926 718.937 L 534.633 760.151 L 551.426 833.2 L 540.641 823.998 L 530.145 799.552 L 529.121 800.329 L 529.039 852.112 L 523.237 840.956 L 512.973 773.57 L 511.634 773.57 L 508.064 823.998 L 501.817 855.683 L 500.032 855.683 L 496.015 823.998 L 496.015 796.33 L 488.429 818.197 L 472.81 836.734 L 498.557 711.765 Z" fill="#FFD25B" style=""/>
  <path fill-rule="evenodd" clip-rule="evenodd" d="M 480.396 364.352 L 433.539 484.395 L 547.335 484.395 L 513.866 373.277 L 480.396 364.352 Z" fill="#FFD25B" style=""/>
  <mask id="mask0" mask-type="alpha" maskUnits="userSpaceOnUse" x="752" y="654" width="238" height="303">
    <path d="M779.5 835.056L758.072 891.097C751.841 907.39 750.769 925.206 755 942.129C758.667 947.462 766.833 951.129 779.5 953.129C792.167 955.129 801.352 955.18 807.055 953.283L814.019 945.737C822.919 936.093 829.834 924.791 834.369 912.476L890.217 760.823L898 760.629V905.797C898 922.344 902.704 938.549 911.564 952.524C918.855 954.927 927.333 956.129 937 956.129C946.667 956.129 953.167 954.296 956.5 950.629C967.252 937.922 973.945 922.281 975.714 905.73L990 772.056L973 664.129C962.778 661.462 950.278 660.129 935.5 660.129C920.722 660.129 890.722 658.271 845.5 654.556L779.5 835.056Z" fill="white"/>
  </mask>
  <g mask="url(#mask0)" transform="matrix(0.892516, 0, 0, 0.892516, -321.082825, -108.350372)" style="">
    <path d="M779.5 835.056L758.072 891.097C751.841 907.39 750.769 925.206 755 942.129C758.667 947.462 766.833 951.129 779.5 953.129C792.167 955.129 801.352 955.18 807.055 953.283L814.019 945.737C822.919 936.093 829.834 924.791 834.369 912.476L890.217 760.823L898 760.629V905.797C898 922.344 902.704 938.549 911.564 952.524C918.855 954.927 927.333 956.129 937 956.129C946.667 956.129 953.167 954.296 956.5 950.629C967.252 937.922 973.945 922.281 975.714 905.73L990 772.056L973 664.129C962.778 661.462 950.278 660.129 935.5 660.129C920.722 660.129 890.722 658.271 845.5 654.556L779.5 835.056Z" fill="#FF6D5B"/>
    <path fill-rule="evenodd" clip-rule="evenodd" d="M848.666 874.146L813.5 881.629L850.236 844.188L839.973 782.065L877.374 804.053L848.666 874.146Z" fill="#FFD25B"/>
  </g>
  <path fill-rule="evenodd" clip-rule="evenodd" d="M 544.658 372.319 C 569.053 389.574 593.898 401.772 619.183 408.912 C 644.468 416.052 717.511 416.052 838.295 408.912 L 838.295 484.395 L 682.159 490.132 C 672.957 490.47 663.755 489.382 654.883 486.907 L 562.508 461.124 L 619.183 622.67 L 598.842 625.072 L 587.945 614.702 L 583.482 624.966 L 556.483 630.073 L 547.335 614.702 L 538.105 632.243 L 498.247 636.95 L 508.064 375.889 L 544.658 372.319 Z M 448.712 364.733 L 482.628 370.534 L 389.806 636.95 L 350.982 628.536 L 347.412 617.38 L 336.978 625.604 L 327.776 623.627 L 327.776 603.992 L 310.475 621.062 L 288.506 617.315 L 389.806 434.795 C 358.271 448.227 335.065 454.942 320.19 454.942 C 305.314 454.942 252.061 454.942 160.429 454.942 L 160.429 419.688 L 160.429 384.814 C 265.449 378.864 330.157 375.889 354.552 375.889 C 378.947 375.889 410.334 372.17 448.712 364.733 Z" fill="#2B254E" style=""/>
  <path fill-rule="evenodd" clip-rule="evenodd" d="M 838.295 408.912 L 916.614 408.912 C 920.184 408.912 923.084 411.809 923.084 415.383 C 923.084 418.957 920.184 421.854 916.614 421.854 L 838.295 421.854 L 838.295 408.912 Z M 82.557 408.912 L 160.876 408.912 L 160.876 421.854 L 82.557 421.854 C 78.984 421.854 76.087 418.957 76.087 415.383 C 76.087 411.809 78.984 408.912 82.557 408.912 Z" fill="#847DAA" style=""/>
  <path fill-rule="evenodd" clip-rule="evenodd" d="M 531.399 394.631 L 540.581 537.003 L 540.641 536.987 L 541.98 551.334 L 537.071 551.268 L 537.071 538.274 L 528.737 539.04 L 529.931 551.78 L 525.022 551.78 L 525.022 539.382 L 517.15 540.106 L 518.328 552.672 L 513.42 552.672 L 513.42 540.449 L 505.387 541.188 L 505.387 553.565 L 501.371 553.565 L 501.804 540.98 L 498.451 394.631 C 486.441 394.631 476.11 394.631 475.488 394.631 C 474.149 394.631 457.191 361.608 519.667 366.517 C 541.597 368.24 552.431 363.309 558.938 366.517 C 563.276 368.655 564.02 374.606 561.169 384.367 C 550.757 391.21 541.832 394.631 534.394 394.631 C 533.575 394.631 532.567 394.631 531.399 394.631 Z" fill="#60588E" style=""/>
  <path fill-rule="evenodd" clip-rule="evenodd" d="M 349.643 278.224 C 353.672 295.946 365.274 309.757 384.451 319.661 C 403.628 329.563 433.081 337.15 472.81 342.42 L 591.354 342.478 L 611.918 333.396 L 623.342 328.352 C 636.176 322.682 647.333 313.78 655.704 302.515 L 659.792 297.022 C 659.06 292.969 647.609 286.406 625.43 277.331 C 603.251 268.258 574.369 258.613 538.779 248.4 C 524.505 238.756 503.344 236.445 475.297 241.467 C 450.029 245.992 411.13 245.956 364.369 264.836 C 360.939 266.221 356.031 270.684 349.643 278.224 Z" fill="#2B254E" style=""/>
  <path fill-rule="evenodd" clip-rule="evenodd" d="M 438.002 359.378 C 432.647 360.567 429.969 364.881 429.969 372.319 C 429.969 379.756 445.142 387.216 475.488 394.697 C 479.258 389.202 482.977 385.335 486.644 383.094 C 490.311 380.854 496.856 378.452 506.279 375.889 L 438.002 359.378 Z" fill="#847DAA" style=""/>
  <mask id="mask1" mask-type="alpha" maskUnits="userSpaceOnUse" x="808" y="367" width="222" height="175">
    <path d="M918.862 541.04C941.226 541.04 950.278 541.621 978.734 535.207C986.102 533.546 987.177 529.277 993.373 525.735C997.321 523.477 1002.35 520.266 1005.73 518.906C1029.13 509.478 1029.4 479.253 1029.4 453.943C1029.4 417.663 986.658 384.465 956.077 371.79C938.883 364.663 941.125 370.222 918.862 370.222C903.473 370.222 914.884 364.332 901.537 369.478C861.235 385.015 813.307 414.95 809.009 450.594C805.864 476.678 814.155 513.903 844.564 525.79C846.372 526.496 854.48 529.164 858.172 530.895C861.701 532.55 862.573 535.598 864.269 536.287C880.38 542.832 898.34 541.04 918.862 541.04Z" fill="white"/>
  </mask>
  <g mask="url(#mask1)" transform="matrix(0.892516, 0, 0, 0.892516, -321.082825, -108.350372)" style="">
    <path d="M909.798 540.562C932.039 542.899 940.981 544.423 969.952 541.018C977.453 540.137 978.968 536.004 985.501 533.128C989.663 531.296 995.001 528.628 998.501 527.628C1022.76 520.698 1026.19 490.667 1028.84 465.496C1032.63 429.415 993.588 391.93 964.501 376.128C948.145 367.243 949.794 373.006 927.653 370.679C912.348 369.07 924.313 364.406 910.501 368.128C868.795 379.367 818.001 404.128 810.001 439.128C804.146 464.74 808.501 502.628 837.501 517.628C839.225 518.52 847.01 522.021 850.501 524.128C853.838 526.143 854.385 529.266 856.001 530.128C871.339 538.321 889.388 538.417 909.798 540.562Z" fill="#FF6D5B"/>
  </g>
  <path fill-rule="evenodd" clip-rule="evenodd" d="M 461.197 262.943 L 473.399 264.658 C 477.76 265.271 481.54 267.988 483.51 271.926 C 488.481 281.865 490.867 287.547 490.667 288.972 C 490.467 290.395 486.75 294.247 479.517 300.529 C 476.593 303.069 472.712 304.217 468.876 303.678 L 454.736 301.692 C 450.6 301.11 446.973 298.632 444.927 294.992 C 441.106 288.191 439.335 283.796 439.615 281.805 C 439.899 279.792 442.999 275.121 448.917 267.79 C 451.873 264.128 456.536 262.288 461.197 262.943 Z M 549.092 273.103 L 557.872 273.87 C 562.494 274.274 566.576 277.042 568.663 281.184 C 573.325 290.435 575.592 295.763 575.467 297.167 C 575.342 298.561 572.308 302.457 566.36 308.854 C 563.549 311.877 559.501 313.434 555.389 313.074 L 544.69 312.138 C 540.272 311.751 536.331 309.201 534.169 305.33 C 530.708 299.134 529.063 295.067 529.232 293.131 C 529.405 291.151 531.902 286.478 536.722 279.11 C 539.423 274.98 544.177 272.672 549.092 273.103 Z" fill="white" style=""/>
  <path fill-rule="evenodd" clip-rule="evenodd" d="M 469.686 288.488 C 466.236 288.488 463.439 285.691 463.439 282.24 C 463.439 278.79 466.236 275.993 469.686 275.993 C 473.137 275.993 475.934 278.79 475.934 282.24 C 475.934 285.691 473.137 288.488 469.686 288.488 Z M 554.314 298.468 C 550.863 298.468 548.066 295.671 548.066 292.22 C 548.066 288.77 550.863 285.973 554.314 285.973 C 557.764 285.973 560.561 288.77 560.561 292.22 C 560.561 295.671 557.764 298.468 554.314 298.468 Z M 513.985 280.374 C 514.23 279.784 514.771 279.37 515.404 279.288 C 516.382 279.16 517.277 279.85 517.404 280.827 L 522.05 316.568 C 522.069 316.713 522.07 316.858 522.054 317.003 C 521.94 317.982 521.055 318.684 520.076 318.572 L 501.49 316.427 C 501.326 316.408 501.164 316.366 501.011 316.302 C 500.1 315.925 499.669 314.88 500.046 313.97 L 513.985 280.374 Z M 434.646 316.532 L 455.725 317.295 L 471.35 329.623 L 490.087 322.497 L 503.931 334.949 L 525.66 325.825 L 537.412 333.95 L 548.582 327.353 L 573.593 333.209 L 549.111 334.922 L 532.942 346.789 L 522.276 335.008 L 501.531 345.406 L 486.703 331.68 L 472.097 340.307 L 454.473 324.987 L 434.646 316.532 Z" fill="#2B254E" style=""/>
  <path fill-rule="evenodd" clip-rule="evenodd" d="M 479.003 170.699 L 476.38 200.063 L 545.55 208.542 L 546.885 178.168 C 547.149 172.178 543.119 166.845 537.284 165.462 C 525.118 162.577 515.558 160.741 508.605 159.955 C 503.062 159.327 497.204 159.117 491.033 159.323 C 484.726 159.533 479.565 164.413 479.003 170.699 Z" fill="#60588E" style=""/>
  <mask id="mask2" mask-type="alpha" maskUnits="userSpaceOnUse" x="751" y="308" width="348" height="148">
    <path d="M898 308.129C877.667 351.462 848.667 380.771 811 396.055C786.128 406.148 768.433 411.98 759.196 421.762C756.268 424.863 753.703 428.652 751.5 433.129C760.318 435.902 766.818 437.736 771 438.629C822.5 449.629 860.832 443.542 884 439.129C895.06 437.022 911.84 432.939 934.341 426.88C947.215 423.414 960.652 422.556 973.861 424.359C1028.92 431.871 1062.64 437.628 1075 441.629C1088.82 446.101 1096.71 450.577 1098.68 455.055C1100.16 444.697 1096.46 436.559 1087.59 430.64C1083.27 427.757 1058.04 422.068 1039.5 410.055C1029.4 403.509 1015.28 391.008 997.156 372.553C986.357 361.558 978.833 347.773 975.426 332.742L972 317.629L898 308.129Z" fill="white"/>
  </mask>
  <g mask="url(#mask2)" transform="matrix(0.892516, 0, 0, 0.892516, -321.082825, -108.350372)" style="">
    <path d="M898 308.129C877.667 351.462 848.667 380.771 811 396.055C786.128 406.148 768.433 411.98 759.196 421.762C756.268 424.863 753.703 428.652 751.5 433.129C760.318 435.902 766.818 437.736 771 438.629C822.5 449.629 860.832 443.542 884 439.129C895.06 437.022 911.84 432.939 934.341 426.88C947.215 423.414 960.652 422.556 973.861 424.359C1028.92 431.871 1062.64 437.628 1075 441.629C1088.82 446.101 1096.71 450.577 1098.68 455.055C1100.16 444.697 1096.46 436.559 1087.59 430.64C1083.27 427.757 1058.04 422.068 1039.5 410.055C1029.4 403.509 1015.28 391.008 997.156 372.553C986.357 361.558 978.833 347.773 975.426 332.742L972 317.629L898 308.129Z" fill="#60588E"/>
    <mask id="mask3" mask-type="alpha" maskUnits="userSpaceOnUse" x="852" y="311" width="92" height="71">
      <path d="M852.5 371.129L884.5 350.129L898 381.629L914 350.129L944 346.129L914 332.629L893.5 311.629L852.5 371.129Z" fill="white"/>
    </mask>
    <g mask="url(#mask3)">
      <path d="M852.5 371.129L884.5 350.129L898 381.629L914 350.129L944 346.129L914 332.629L893.5 311.629L852.5 371.129Z" fill="#2B254E"/>
      <path fill-rule="evenodd" clip-rule="evenodd" d="M906 325.129L884.5 376.629L898 389.129L958.5 346.629L906 325.129Z" fill="#FFD25B"/>
    </g>
  </g>
  <path d="M 163.553 203.699 C 183.763 203.699 200.146 187.316 200.146 167.106 C 200.146 146.895 183.763 130.512 163.553 130.512 C 143.343 130.512 126.96 146.895 126.96 167.106 C 126.96 187.316 143.343 203.699 163.553 203.699 Z" fill="#EBEEF6" style=""/>
  <path fill-rule="evenodd" clip-rule="evenodd" d="M 243.88 264.39 L 237.632 283.579 C 222.757 283.579 215.319 283.579 215.319 283.579 C 215.319 283.579 222.757 285.513 237.632 289.38 C 240.012 305.148 241.202 313.032 241.202 313.032 C 241.202 313.032 242.69 305.892 245.665 291.612 L 264.854 287.149 L 245.665 283.579 L 243.88 264.39 Z" fill="#FFD25B" style=""/>
  <path fill-rule="evenodd" clip-rule="evenodd" d="M 701.74 167.106 L 695.493 186.295 C 680.615 186.295 673.18 186.295 673.18 186.295 C 673.18 186.295 680.615 188.229 695.493 192.096 C 697.876 207.864 699.063 215.748 699.063 215.748 C 699.063 215.748 700.553 208.608 703.525 194.327 L 722.714 189.865 L 703.525 186.295 L 701.74 167.106 Z" fill="#FFD25B" style=""/>
  <path fill-rule="evenodd" clip-rule="evenodd" d="M 743.885 340.254 L 739.155 354.689 C 727.9 354.689 722.268 354.689 722.268 354.689 C 722.268 354.689 727.9 356.144 739.155 359.054 C 740.958 370.916 741.859 376.847 741.859 376.847 C 741.859 376.847 742.984 371.476 745.233 360.732 L 759.754 357.375 L 745.233 354.689 L 743.885 340.254 Z" fill="#FFD25B" style=""/>
  <path fill-rule="evenodd" clip-rule="evenodd" d="M 336.106 164.874 L 331.942 177.55 C 322.025 177.55 317.066 177.55 317.066 177.55 C 317.066 177.55 322.025 178.827 331.942 181.381 C 333.528 191.797 334.321 197.005 334.321 197.005 C 334.321 197.005 335.313 192.289 337.297 182.856 L 350.089 179.908 L 337.297 177.55 L 336.106 164.874 Z" fill="#FFD25B" style=""/>
  <path fill-rule="evenodd" clip-rule="evenodd" d="M 245.409 558.102 C 245.411 558.134 245.411 558.166 245.409 558.198 C 245.231 560.222 234.585 561.983 221.486 560.835 C 208.389 559.687 198.185 557.174 198.362 555.149 C 198.371 555.042 198.41 554.939 198.476 554.839 L 201.931 537.499 L 201.765 520.715 L 203.808 499.686 L 249.843 503.667 L 243.493 521.345 L 245.479 558.106 L 245.409 558.102 Z M 811.814 590.976 C 811.823 591.005 811.832 591.036 811.832 591.069 C 812.189 593.07 802.363 597.526 789.412 599.807 C 776.462 602.088 765.957 602.302 765.6 600.3 C 765.582 600.183 765.6 600.061 765.645 599.934 L 765.555 584.802 L 758.031 566.17 C 756.809 563.152 756.22 559.92 756.282 556.666 L 756.505 545.317 L 802.006 537.248 C 804.023 543.155 805.263 548.296 805.718 552.672 C 806.174 557.048 806.174 563.741 805.718 572.753 L 811.877 590.961 L 811.814 590.976 Z M 716.69 585.392 C 716.69 585.424 716.69 585.456 716.69 585.488 C 716.547 587.515 705.935 589.462 692.815 588.543 C 679.704 587.623 669.458 585.289 669.601 583.262 C 669.61 583.157 669.637 583.056 669.699 582.957 L 672.287 566.952 L 672.403 548.772 L 674.072 527.711 L 720.171 530.889 L 713.789 562.043 L 716.761 585.396 L 716.69 585.392 Z" fill="#847DAA" style=""/>
  <path fill-rule="evenodd" clip-rule="evenodd" d="M 226.519 505.504 C 213.974 504.404 203.948 501.872 204.125 499.847 C 204.302 497.823 214.614 497.073 227.159 498.173 C 239.704 499.272 249.73 501.804 249.553 503.83 C 249.376 505.854 239.064 506.603 226.519 505.504 Z M 779.952 545.059 C 767.546 547.243 757.21 547.392 756.853 545.39 C 756.505 543.389 766.269 539.996 778.675 537.811 C 791.072 535.626 801.417 535.478 801.765 537.479 C 802.122 539.481 792.358 542.874 779.952 545.059 Z M 696.885 533.133 C 684.318 532.252 674.251 529.895 674.394 527.867 C 674.536 525.84 684.836 524.91 697.394 525.791 C 709.96 526.671 720.028 529.029 719.885 531.056 C 719.742 533.084 709.443 534.013 696.885 533.133 Z" fill="#60588E" style=""/>
  <path fill-rule="evenodd" clip-rule="evenodd" d="M 234.913 440.316 L 238.672 441.103 L 230.195 501.237 C 230.056 502.219 229.148 502.904 228.165 502.766 C 228.126 502.76 228.087 502.753 228.048 502.745 C 226.991 502.524 226.286 501.521 226.436 500.45 L 234.913 440.316 Z M 702.936 467.886 L 706.712 468.606 L 699.277 528.88 C 699.161 529.865 698.26 530.565 697.278 530.443 C 697.242 530.439 697.197 530.433 697.162 530.425 C 696.1 530.222 695.377 529.231 695.511 528.16 L 702.936 467.886 Z M 765.412 480.427 L 769.223 479.947 L 780.791 539.565 C 780.978 540.54 780.344 541.482 779.362 541.671 C 779.327 541.678 779.291 541.685 779.246 541.69 C 778.175 541.825 777.185 541.105 776.979 540.045 L 765.412 480.427 Z" fill="#2B254E" style=""/>
  <path fill-rule="evenodd" clip-rule="evenodd" d="M 151.951 189.865 C 153.662 189.865 154.987 189.351 155.967 188.08 C 156.681 187.154 157.306 185.652 157.306 184.51 C 157.306 183.07 157.044 181.509 155.967 180.493 C 155.015 179.596 153.338 179.155 151.951 179.155 C 150.538 179.155 148.891 179.568 147.934 180.493 C 146.887 181.505 146.595 183.093 146.595 184.51 C 146.595 187.22 148.993 189.865 151.951 189.865 Z" fill="#C1C6D3" style=""/>
  <path fill-rule="evenodd" clip-rule="evenodd" d="M 172.478 161.751 C 175.045 161.751 177.032 160.98 178.503 159.073 C 179.574 157.684 180.511 155.431 180.511 153.718 C 180.511 151.558 180.118 149.217 178.503 147.693 C 177.077 146.347 174.559 145.685 172.478 145.685 C 170.36 145.685 167.889 146.306 166.454 147.693 C 164.884 149.212 164.446 151.594 164.446 153.718 C 164.446 157.784 168.042 161.751 172.478 161.751 Z" fill="#C1C6D3" style=""/>
  <path fill-rule="evenodd" clip-rule="evenodd" d="M 183.978 176.313 C 185.066 175.633 185.705 174.779 185.823 173.582 C 185.909 172.709 185.71 171.505 185.256 170.778 C 184.684 169.863 183.896 168.975 182.808 168.756 C 181.846 168.563 180.603 168.95 179.721 169.501 C 178.822 170.063 177.94 170.98 177.699 171.948 C 177.435 173.009 177.881 174.134 178.443 175.035 C 179.521 176.759 182.097 177.488 183.978 176.313 Z" fill="#C1C6D3" style=""/>
  <path d="M 223.06919860839844 527.6831665039062 Q 226.84776306152344 527.6831665039062 229.08055114746094 530.3167114257812 Q 231.31333923339844 532.9502563476562 231.31333923339844 537.5303344726562 Q 231.31333923339844 543.0035278320313 228.53094177246095 546.0492797851563 Q 225.74854431152343 549.0950317382812 220.80205993652345 549.0950317382812 Q 216.40518493652343 549.0950317382812 213.68003845214844 547.4233032226563 L 213.68003845214844 541.6066040039062 Q 214.84795837402345 542.4539184570312 216.69143981933593 543.1065795898437 Q 218.53492126464843 543.7592407226563 220.11504821777345 543.7592407226563 Q 225.03863220214845 543.7592407226563 225.03863220214845 538.0341430664063 Q 225.03863220214845 532.6983520507813 220.25245056152343 532.6983520507813 Q 218.35171813964843 532.6983520507813 216.22198181152345 533.4311645507812 L 214.20674743652344 531.9426391601562 L 215.23726501464844 515.1566528320312 L 229.52710876464843 515.1566528320312 L 229.52710876464843 520.7214477539062 L 220.57305603027345 520.7214477539062 L 220.11504821777345 527.9579711914063 Q 221.39747009277343 527.6831665039062 223.06919860839844 527.6831665039062 Z" transform="matrix(1, 0, 0, 1, 0, 0)" style="fill: rgb(255, 251, 251); white-space: pre;"/>
  <path d="M 702.3939697265625 559.9728271484375 Q 702.3939697265625 569.0642822265625 700.206982421875 573.1176513671875 Q 698.0199951171875 577.1710205078125 693.1651123046875 577.1710205078125 Q 688.3102294921875 577.1710205078125 686.191943359375 573.0947509765625 Q 684.0736572265625 569.0184814453125 684.0736572265625 559.9728271484375 Q 684.0736572265625 550.9042724609375 686.2949951171875 546.8051025390625 Q 688.5163330078125 542.7059326171875 693.2567138671875 542.7059326171875 Q 698.0886962890625 542.7059326171875 700.2413330078125 546.7135009765625 Q 702.3939697265625 550.7210693359375 702.3939697265625 559.9728271484375 Z M 690.3025634765625 559.9728271484375 Q 690.3025634765625 567.0032470703125 690.909423828125 569.442138671875 Q 691.5162841796875 571.8810302734375 693.2109130859375 571.8810302734375 Q 694.3559326171875 571.8810302734375 694.985693359375 570.8276123046875 Q 695.6154541015625 569.7741943359375 695.8902587890625 567.335302734375 Q 696.1650634765625 564.8964111328125 696.1650634765625 559.9728271484375 Q 696.1650634765625 553.0569091796875 695.5238525390625 550.5378662109375 Q 694.8826416015625 548.0188232421875 693.2109130859375 548.0188232421875 Q 691.5162841796875 548.0188232421875 690.909423828125 550.526416015625 Q 690.3025634765625 553.0340087890625 690.3025634765625 559.9728271484375 Z" transform="matrix(1, 0, 0, 1, 0, 0)" style="fill: rgb(255, 251, 251); white-space: pre;"/>
  <text style="fill: rgb(255, 251, 251); font-family: &quot;Open Sans Condensed&quot;; font-size: 46.9px; white-space: pre;" x="774.783" y="587.299">0</text>
</svg>