<?xml version="1.0" encoding="utf-8"?>
<svg width="1000px" height="1000px" viewBox="0 0 1000 1000" fill="none" xmlns="http://www.w3.org/2000/svg">
  <path fill-rule="evenodd" clip-rule="evenodd" d="M 817.808 837.709 C 820.168 825.409 822.538 815.899 824.898 809.189 C 827.268 802.479 831.838 792.316 838.618 778.71 C 843.968 791.463 847.598 800.839 849.498 806.839 C 851.398 812.849 852.338 817.929 852.338 822.079 C 852.548 818.109 853.648 813.809 855.648 809.189 C 857.648 804.559 861.268 797.919 866.528 789.26 C 872.338 799.729 876.438 807.669 878.818 813.099 C 881.208 818.519 884.198 826.729 887.808 837.709 L 817.808 837.709 Z M 652.808 867.709 C 654.768 855.409 656.728 845.899 658.688 839.189 C 660.648 832.479 664.438 822.319 670.048 808.709 C 674.488 821.459 677.488 830.839 679.068 836.839 C 680.638 842.849 681.418 847.929 681.418 852.079 C 681.588 848.109 682.498 843.809 684.158 839.189 C 685.818 834.559 688.818 827.919 693.168 819.259 C 697.988 829.729 701.388 837.669 703.358 843.099 C 705.338 848.519 707.818 856.729 710.808 867.709 L 652.808 867.709 Z" fill="#FF946A"/>
  <path fill-rule="evenodd" clip-rule="evenodd" d="M 592.548 846.159 L 592.548 793.561 L 648.288 793.561 L 648.288 846.159" fill="#F4E5AD"/>
  <path fill-rule="evenodd" clip-rule="evenodd" d="M 705.698 848.399 L 705.698 815.389 L 778.718 815.389 L 778.718 836.649 L 778.718 859.589" fill="#F4E5AD"/>
  <path fill-rule="evenodd" clip-rule="evenodd" d="M 778.158 925.619 L 778.158 836.089 L 879.608 836.089 L 879.608 925.119" fill="#F4E5AD"/>
  <path fill-rule="evenodd" clip-rule="evenodd" d="M 586.978 880.859 L 586.978 827.139 L 598.118 827.139 L 598.118 836.649 L 604.808 836.649 L 604.808 827.139 L 616.518 827.139 L 616.518 836.649 L 623.208 836.649 L 623.208 827.139 L 634.908 827.139 L 634.908 836.649 L 641.598 836.649 L 641.598 827.139 L 655.538 827.139 L 655.538 884.219" fill="#AFA26E"/>
  <path fill-rule="evenodd" clip-rule="evenodd" d="M 870.688 925.619 L 870.688 793.561 L 925.318 793.561 L 925.318 924.869" fill="#DACA8B"/>
  <path fill-rule="evenodd" clip-rule="evenodd" d="M 575.828 879.739 L 575.828 925.059 L 670.578 925.059 L 670.578 910.399 C 670.578 893.459 684.308 879.739 701.238 879.739 C 718.168 879.739 731.898 893.459 731.898 910.399 L 731.898 925.059 L 783.178 925.059 L 783.178 836.649 L 768.688 836.649 L 766.458 848.399 L 756.418 848.399 L 756.418 836.649 L 736.918 836.649 L 736.918 848.399 L 726.878 848.399 L 726.878 836.649 L 707.928 836.649 L 707.928 848.399 L 698.448 848.399 L 698.448 836.649 L 679.498 836.649 L 679.498 854.559 L 661.108 854.559 L 643.828 879.739 L 575.828 879.739 Z" fill="#DACA8B"/>
  <path fill-rule="evenodd" clip-rule="evenodd" d="M 570.808 914.429 L 675.598 914.429 L 675.598 925.619 L 570.808 925.619 L 570.808 914.429 Z M 729.108 914.429 L 788.198 914.429 L 788.198 925.619 L 729.108 925.619 L 729.108 914.429 Z" fill="#AFA26E"/>
  <path fill-rule="evenodd" clip-rule="evenodd" d="M 604.808 868.549 L 604.808 850.619 C 604.808 848.159 606.808 846.159 609.268 846.159 C 611.728 846.159 613.728 848.159 613.728 850.619 L 613.728 868.549 L 604.808 868.549 Z M 812.718 896.529 L 812.718 878.599 C 812.718 876.139 814.718 874.139 817.178 874.139 C 819.638 874.139 821.638 876.139 821.638 878.599 L 821.638 896.529 L 812.718 896.529 Z M 628.778 868.549 L 628.778 850.619 C 628.778 848.159 630.778 846.159 633.238 846.159 C 635.698 846.159 637.698 848.159 637.698 850.619 L 637.698 868.549 L 628.778 868.549 Z M 836.688 896.529 L 836.688 878.599 C 836.688 876.139 838.688 874.139 841.148 874.139 C 843.608 874.139 845.608 876.139 845.608 878.599 L 845.608 896.529 L 836.688 896.529 Z M 894.098 846.159 L 894.098 828.239 C 894.098 825.779 896.098 823.779 898.558 823.779 C 901.028 823.779 903.018 825.779 903.018 828.239 L 903.018 846.159 L 894.098 846.159 Z M 894.098 895.409 L 894.098 877.479 C 894.098 875.019 896.098 873.019 898.558 873.019 C 901.028 873.019 903.018 875.019 903.018 877.479 L 903.018 895.409 L 894.098 895.409 Z M 752.518 914.429 L 752.518 896.499 C 752.518 892.189 756.018 888.689 760.328 888.689 C 764.638 888.689 768.128 892.189 768.128 896.499 L 768.128 914.429 L 752.518 914.429 Z" fill="#334E62"/>
  <path fill-rule="evenodd" clip-rule="evenodd" d="M 727.038 749.731 L 744.158 711.302 L 766.388 761.196 C 768.098 764.236 769.798 767.19 771.468 770.059 C 777.578 780.488 786.868 795.597 799.338 815.389 C 775.218 818.269 756.548 819.709 743.308 819.709 C 730.068 819.709 711.218 818.269 686.748 815.389 C 700.528 795.277 710.378 780.168 716.288 770.059 C 719.928 763.834 723.518 757.058 727.038 749.731 Z M 579.728 793.561 C 589.538 784.093 596.228 774.394 599.788 764.463 C 603.358 754.532 610.418 736.252 620.978 709.623 C 631.498 735.77 638.558 754.049 642.158 764.463 C 645.758 774.876 652.258 784.576 661.668 793.561 C 648.658 795.8 634.908 796.919 620.418 796.919 C 605.928 796.919 592.358 795.8 579.728 793.561 Z M 857.308 795.8 C 867.128 786.332 873.808 776.632 877.378 766.701 C 880.948 756.77 888.008 738.49 898.558 711.862 C 909.078 738.008 916.138 756.288 919.738 766.701 C 923.338 777.114 929.838 786.814 939.248 795.8 C 926.248 798.039 912.498 799.159 897.998 799.159 C 883.508 799.159 869.948 798.039 857.308 795.8 Z" fill="#334E62"/>
  <path fill-rule="evenodd" clip-rule="evenodd" d="M 683.208 420.45 C 696.358 468.439 694.988 507.349 679.108 537.179 C 663.228 567.009 657.198 604.634 661.038 650.055 L 700.668 599.631 C 700.088 628.6 700.448 650.714 701.748 665.972 C 703.048 681.229 705.848 696.261 710.158 711.069 L 729.428 668.465 C 737.818 687.128 746.998 702.694 756.958 715.164 C 766.928 727.634 783.098 743.794 805.468 763.643 C 809.668 733.361 811.688 710.37 811.528 694.669 C 811.378 678.968 808.978 663.596 804.338 648.554 L 831.578 677.33 C 833.388 662.623 831.568 649.174 826.118 636.984 C 820.678 624.793 812.868 608.042 802.688 586.73 L 845.608 619.596 C 832.528 579.278 808.708 545.561 774.168 518.445 C 739.628 491.329 718.508 459.244 710.788 422.189 C 706.158 420.085 702.048 418.889 698.428 418.602 C 694.808 418.315 689.738 418.931 683.208 420.45 Z" fill="#FF946A"/>
  <path fill-rule="evenodd" clip-rule="evenodd" d="M 695.148 420.561 C 701.018 446.974 705.458 468.889 708.488 486.306 C 710.528 498.049 712.498 515.095 714.408 537.442 C 716.428 561.005 726.728 583.092 743.488 599.779 L 757.938 614.172 L 759.778 606.982 C 766.208 581.87 762.638 555.243 749.808 532.715 C 738.898 513.535 730.578 497.881 724.878 485.754 C 716.058 467.021 708.068 444.71 700.918 418.82 L 695.148 420.561 Z" fill="#FFE676"/>
  <path fill-rule="evenodd" clip-rule="evenodd" d="M 527.808 696.367 C 523.308 707.487 519.043 715.4 515.015 720.107 C 512.898 722.58 510.198 725.479 506.914 728.804 C 505.99 729.74 504.481 729.75 503.545 728.825 C 502.808 728.097 502.626 726.976 503.096 726.052 L 508.341 715.73 C 508.918 714.593 508.465 713.204 507.328 712.627 C 507.2 712.562 507.066 712.509 506.929 712.468 C 505.353 712.009 503.666 712.669 502.82 714.076 L 491.505 732.898 C 490.935 733.845 489.707 734.151 488.76 733.582 C 488.091 733.18 487.717 732.425 487.802 731.65 L 490.122 710.511 L 506.11 688.71 L 527.808 696.367 Z" fill="#437BA6"/>
  <path fill-rule="evenodd" clip-rule="evenodd" d="M 327.808 684.37 L 242.666 579.71 L 91.097 626.698 C 89.515 627.189 88.629 628.869 89.12 630.452 C 89.478 631.608 90.496 632.435 91.7 632.55 L 166.43 639.687 L 185.894 680.835 C 186.573 682.27 188.252 682.928 189.725 682.335 L 234.102 664.493 L 266.774 689.888 C 267.297 690.295 267.94 690.517 268.603 690.52 L 315.465 690.71 L 327.808 684.37 Z" fill="#334E62"/>
  <path fill-rule="evenodd" clip-rule="evenodd" d="M 429.118 669.208 L 462.423 718.271 L 473.749 691.1 C 475.421 687.091 478.069 683.565 481.454 680.843 C 492.644 671.844 509.01 673.62 518.009 684.81 L 527.808 696.994 L 518.696 696.867 C 512.643 696.783 507.002 699.923 503.885 705.113 L 470.496 760.71 L 430.731 732.025 L 433.518 840.619 L 463.453 870.449 L 493.55 877.569 C 494.903 877.889 496.063 878.759 496.749 879.969 C 498.11 882.369 497.266 885.419 494.863 886.779 L 450.264 912.049 C 450.255 912.059 450.246 912.059 450.236 912.069 C 438.215 918.859 422.964 914.619 416.173 902.599 L 384.311 846.199 L 351.32 846.199 L 351.32 905.959 L 370.901 916.899 C 372.166 917.609 372.95 918.949 372.95 920.399 C 372.95 922.599 371.159 924.399 368.95 924.399 L 300.627 924.399 C 299.901 924.399 299.175 924.349 298.454 924.259 C 288.586 923.059 281.559 914.089 282.758 904.219 L 289.812 846.199 L 184.842 902.099 C 179.761 904.809 174.236 906.579 168.53 907.329 L 36.808 924.619 L 242.842 770.241 L 291.918 659.634 C 292.679 657.918 293.618 656.319 294.709 654.853 L 292.907 654.855 L 311.323 219.352 C 313.547 166.773 356.14 124.915 408.75 123.608 L 686.308 116.71 C 739.308 115.043 765.808 145.377 765.808 207.71 C 765.808 217.081 754.978 267.081 733.308 357.71 C 746.938 369.773 748.208 390.6 736.148 404.229 C 735.378 405.091 734.578 405.912 733.728 406.689 C 733.658 406.749 733.598 406.809 733.528 406.87 C 731.368 408.903 729.028 410.684 726.558 412.203 L 727.478 417.515 C 727.828 419.565 727.678 421.669 727.048 423.651 C 724.878 430.494 717.568 434.281 710.728 432.108 L 695.458 427.261 L 683.508 434.272 C 682.238 435.017 680.848 435.541 679.408 435.821 C 672.358 437.188 665.538 432.582 664.168 425.533 L 660.538 406.782 L 660.308 406.71 L 637.808 357.71 L 552.808 289.71 L 483.467 285.578 C 473.841 285.005 465.474 292.118 464.49 301.711 L 428.657 651.247 L 429.118 669.208 Z" fill="#7AC6FF"/>
  <path fill-rule="evenodd" clip-rule="evenodd" d="M 738.928 303.704 C 744.088 299.598 756.418 303.104 755.548 312.915 C 754.688 322.726 747.758 338.322 736.088 328.426 C 724.428 318.53 733.778 307.809 738.928 303.704 Z M 643.868 307.42 C 646.388 301.331 658.868 298.42 662.868 307.42 C 666.868 316.42 668.368 333.42 653.368 330.42 C 638.368 327.42 641.358 313.508 643.868 307.42 Z" fill="white"/>
  <path fill-rule="evenodd" clip-rule="evenodd" d="M 734.868 318.511 C 734.888 317.13 736.028 316.031 737.408 316.055 L 748.408 316.247 C 749.788 316.271 750.888 317.41 750.858 318.79 C 750.838 320.171 749.698 321.27 748.318 321.246 L 737.318 321.054 C 735.938 321.03 734.838 319.891 734.868 318.511 Z M 647.308 318.57 C 647.338 317.19 648.468 316.09 649.848 316.114 L 660.848 316.306 C 662.228 316.33 663.328 317.469 663.308 318.849 C 663.278 320.23 662.148 321.33 660.768 321.305 L 649.768 321.113 C 648.388 321.089 647.288 319.951 647.308 318.57 Z" fill="#334E62"/>
  <path fill-rule="evenodd" clip-rule="evenodd" d="M 289.459 845.619 L 273.808 929.709 L 369.259 929.209 C 373.677 929.189 377.24 925.589 377.217 921.169 C 377.21 919.819 376.86 918.489 376.202 917.309 L 374.982 915.129 L 354.859 905.599 L 351.505 846.179 L 289.459 845.619 Z" fill="#437BA6"/>
  <path fill-rule="evenodd" clip-rule="evenodd" d="M 262.459 560.724 L 130.506 582.362 C 128.871 582.63 127.763 584.173 128.031 585.808 C 128.226 587 129.118 587.958 130.293 588.24 L 215.656 608.677 L 221.852 650.728 C 222.084 652.303 223.507 653.422 225.092 653.278 L 288.119 647.537 L 302.378 677.705 C 302.817 678.632 303.699 679.271 304.716 679.399 L 363.3 686.765 L 373.399 697.75 C 374.965 699.454 377.538 699.763 379.463 698.479 C 381.366 697.209 382.006 694.711 380.949 692.683 L 376.521 684.188 C 376.253 683.675 375.991 683.159 375.734 682.641 L 333.332 597.088 C 320.26 570.715 291.506 555.961 262.459 560.724 Z" fill="#437BA6"/>
  <path fill-rule="evenodd" clip-rule="evenodd" d="M 299.657 510.462 L 238.003 554.257 C 236.653 555.217 234.78 554.9 233.82 553.549 C 233.189 552.66 233.089 551.5 233.56 550.517 L 305.408 400.39 L 248.98 427.554 C 247.487 428.273 245.695 427.645 244.976 426.152 C 244.594 425.359 244.58 424.438 244.937 423.634 L 308.816 279.737 L 270.686 299.938 C 269.222 300.714 267.407 300.155 266.631 298.691 C 266.188 297.855 266.165 296.858 266.571 296.002 L 317.056 189.454 L 299.657 510.462 Z M 520.851 120.008 L 466.528 180.339 C 464.68 182.391 461.518 182.557 459.466 180.709 C 457.977 179.369 457.433 177.269 458.082 175.374 L 473.362 130.754 L 381.304 198.053 C 379.074 199.682 375.946 199.196 374.316 196.967 C 373.246 195.503 373.052 193.574 373.811 191.926 L 404.917 124.325 L 520.851 120.008 Z" fill="#334E62"/>
  <path fill-rule="evenodd" clip-rule="evenodd" d="M 242.808 770.71 L 198.896 779.448 C 197.271 779.771 196.216 781.351 196.539 782.976 C 196.603 783.294 196.717 783.599 196.878 783.881 L 203.141 794.823 L 165.684 804.629 C 164.081 805.049 163.122 806.689 163.541 808.289 C 163.687 808.849 163.991 809.359 164.417 809.739 L 172.581 817.229 L 132.941 827.329 C 131.336 827.739 130.366 829.369 130.775 830.979 C 131.015 831.919 131.697 832.689 132.604 833.039 L 145.355 837.949 L 102.322 854.589 C 100.776 855.179 100.008 856.919 100.605 858.469 C 100.973 859.419 101.799 860.119 102.798 860.319 L 119.24 863.709 L 242.808 770.71 Z" fill="#334E62"/>
  <path fill-rule="evenodd" clip-rule="evenodd" d="M 697.598 335.311 C 697.478 341.273 667.188 307.543 629.048 223.271 C 615.418 193.146 593.228 133.179 562.473 43.369 L 620.618 140.539 L 632.448 74.39 L 654.638 197.967 L 672.278 168.379 C 689.348 270.508 697.788 326.152 697.598 335.311 Z M 754.668 330.439 C 751.958 334.175 747.748 299.249 760.908 228.704 C 765.618 203.486 778.098 155.488 798.368 84.71 L 792.128 172.359 L 828.808 135.577 L 788.228 224.009 L 812.418 213.053 C 778.078 285.571 758.828 324.7 754.668 330.439 Z" fill="#334E62"/>
  <path d="M 733.738 357.746 C 733.538 358.259 732.948 358.51 732.438 358.306 C 731.928 358.102 731.678 357.521 731.878 357.008 C 741.098 333.787 757.578 327.891 780.758 339.482 C 787.198 342.703 793.868 348.825 801.738 358.256 C 804.918 362.075 808.268 366.373 812.398 371.91 C 814.608 374.878 822.298 385.346 823.348 386.766 C 838.118 406.703 847.908 417.952 858.778 425.992 C 872.578 436.199 885.928 438.674 899.898 432.3 C 905.008 429.966 909.628 427.662 913.738 425.39 C 928.558 417.207 933.938 398.562 925.758 383.745 C 924.198 380.934 922.218 378.385 919.878 376.19 C 912.628 369.403 901.248 369.776 894.458 377.023 C 893.938 377.583 893.448 378.176 892.998 378.799 L 890.118 382.795 C 889.798 383.243 889.168 383.344 888.728 383.021 C 888.278 382.698 888.178 382.073 888.498 381.625 L 891.378 377.629 C 891.878 376.938 892.418 376.279 892.998 375.656 C 900.548 367.602 913.188 367.188 921.238 374.73 C 923.738 377.068 925.848 379.784 927.508 382.778 C 936.218 398.562 930.488 418.424 914.708 427.14 C 910.548 429.439 905.888 431.765 900.728 434.12 C 886.038 440.823 871.938 438.209 857.588 427.6 C 846.508 419.406 836.628 408.047 821.748 387.956 C 820.688 386.531 812.998 376.067 810.788 373.106 C 806.678 367.595 803.358 363.324 800.198 359.538 C 792.488 350.301 785.998 344.341 779.858 341.271 C 757.708 330.196 742.518 335.633 733.738 357.746 Z M 664.378 360.746 C 655.598 338.633 640.408 333.196 618.258 344.271 C 610.078 348.358 602.018 358.13 591.488 375.342 C 589.758 378.174 587.938 381.217 585.788 384.912 C 584.938 386.36 584.068 387.851 582.918 389.839 C 583.038 389.634 580.688 393.683 580.038 394.809 C 566.257 418.546 558.462 430.065 549.011 438.656 C 536.517 450.013 524.015 451.7 510.721 442.019 C 488.144 425.577 484.12 407.003 498.827 386.753 C 505.685 377.311 518.897 375.216 528.338 382.074 C 531.723 384.532 534.302 387.939 535.748 391.865 C 535.939 392.383 535.673 392.958 535.155 393.149 C 534.637 393.339 534.062 393.074 533.871 392.556 C 532.562 389.002 530.227 385.917 527.163 383.692 C 518.615 377.484 506.654 379.38 500.446 387.928 C 486.418 407.242 490.175 424.582 511.898 440.402 C 524.367 449.482 535.83 447.934 547.666 437.176 C 556.908 428.775 564.636 417.354 578.308 393.805 C 578.958 392.68 581.308 388.631 581.188 388.836 C 582.338 386.846 583.208 385.353 584.058 383.903 C 586.218 380.197 588.038 377.143 589.778 374.298 C 600.508 356.772 608.738 346.794 617.358 342.482 C 640.548 330.891 657.018 336.787 666.238 360.008 C 666.438 360.521 666.188 361.102 665.678 361.306 C 665.168 361.51 664.588 361.259 664.378 360.746 Z" fill="#334E62"/>
  <path fill-rule="evenodd" clip-rule="evenodd" d="M 665.308 360.21 C 679.878 361.656 689.718 366.156 694.808 373.71 C 699.898 381.264 698.238 391.597 689.808 404.71 L 665.308 360.21 Z" fill="#437BA6"/>
</svg>