<?xml version="1.0" encoding="utf-8"?>
<svg width="334px" height="334" viewBox="0 0 328 334" fill="none" xmlns="http://www.w3.org/2000/svg">
  <path d="M110.098 248.064H87.5023L70 95.7726H94.5008L99.7527 153.956L105.803 95.7726H128.873L136.192 153.478L140.013 95.7726H165.949L148.604 248.064H125.692L118.053 188.61L110.098 248.064" fill="black"/>
  <path d="M212.826 248.064H181V95.7726H269.475V209.435H212.826V248.064ZM237.49 180.343V124.702H212.826V180.343H237.49Z" fill="black"/>
  <path fill-rule="evenodd" clip-rule="evenodd" d="M27.6872 166.919C27.6872 82.0322 96.588 13.1936 181.563 13.1936C241.871 13.1936 294.066 47.8518 319.203 98.2419C293.11 40.3825 234.71 -8.59683e-07 166.922 -8.59683e-07C74.7885 -8.59683e-07 0 74.7168 0 166.919C0 259.12 74.7885 333.833 166.922 333.833C234.71 333.833 293.11 293.617 319.203 235.591C294.066 285.985 241.871 320.64 181.563 320.64C96.588 320.64 27.6872 251.809 27.6872 166.919" fill="black"/>
  <path fill-rule="evenodd" clip-rule="evenodd" d="M303.609 166.919C303.609 92.5216 243.144 32.1157 168.673 32.1157C115.844 32.1157 70.1741 62.4745 47.8965 106.671C70.9704 55.9607 122.049 20.6669 181.401 20.6669C262.397 20.6669 327.956 86.1616 327.956 166.919C327.956 247.833 262.397 313.328 181.401 313.328C122.049 313.328 70.9704 277.881 47.8965 227.167C70.1741 271.359 115.844 301.725 168.673 301.725C243.144 301.725 303.609 241.316 303.609 166.919" fill="black"/>
</svg>