<?xml version="1.0" encoding="utf-8"?>
<svg width="334px" height="334" viewBox="0 0 334 334" fill="none" xmlns="http://www.w3.org/2000/svg">
  <rect x="-0.3" y="0.316" width="334" height="334" style="fill: rgb(36, 38, 51);"/>
  <g style="" transform="matrix(0.864808, 0, 0, 0.864808, 20.466745, 26.016161)">
    <path d="M 110.098 248.064 L 87.502 248.064 L 70 95.773 L 94.501 95.773 L 99.753 153.956 L 105.803 95.773 L 128.873 95.773 L 136.192 153.478 L 140.013 95.773 L 165.949 95.773 L 148.604 248.064 L 125.692 248.064 L 118.053 188.61 L 110.098 248.064" style="fill: rgb(255, 255, 255);"/>
    <path d="M 212.826 248.064 L 181 248.064 L 181 95.773 L 269.475 95.773 L 269.475 209.435 L 212.826 209.435 L 212.826 248.064 Z M 237.49 180.343 L 237.49 124.702 L 212.826 124.702 L 212.826 180.343 L 237.49 180.343 Z" style="fill: rgb(255, 255, 255);"/>
    <path fill-rule="evenodd" clip-rule="evenodd" d="M 27.687 166.919 C 27.687 82.032 96.588 13.194 181.563 13.194 C 241.871 13.194 294.066 47.852 319.203 98.242 C 293.11 40.383 234.71 0 166.922 0 C 74.789 0 0 74.717 0 166.919 C 0 259.12 74.789 333.833 166.922 333.833 C 234.71 333.833 293.11 293.617 319.203 235.591 C 294.066 285.985 241.871 320.64 181.563 320.64 C 96.588 320.64 27.687 251.809 27.687 166.919" style="fill: rgb(255, 255, 255);"/>
    <path fill-rule="evenodd" clip-rule="evenodd" d="M 303.609 166.919 C 303.609 92.522 243.144 32.116 168.673 32.116 C 115.844 32.116 70.174 62.475 47.897 106.671 C 70.97 55.961 122.049 20.667 181.401 20.667 C 262.397 20.667 327.956 86.162 327.956 166.919 C 327.956 247.833 262.397 313.328 181.401 313.328 C 122.049 313.328 70.97 277.881 47.897 227.167 C 70.174 271.359 115.844 301.725 168.673 301.725 C 243.144 301.725 303.609 241.316 303.609 166.919" style="fill: rgb(255, 255, 255);"/>
  </g>
</svg>