<?xml version="1.0" standalone="no"?>
<!DOCTYPE svg PUBLIC "-//W3C//DTD SVG 20010904//EN"
 "http://www.w3.org/TR/2001/REC-SVG-20010904/DTD/svg10.dtd">
<svg version="1.0" xmlns="http://www.w3.org/2000/svg"
 width="700.000000pt" height="700.000000pt" viewBox="0 0 700.000000 700.000000"
 preserveAspectRatio="xMidYMid meet">
<metadata>
Created by potrace 1.14, written by Peter Selinger 2001-2017
</metadata>
<g transform="translate(0.000000,700.000000) scale(0.100000,-0.100000)"
fill="#000000" stroke="none">
<path d="M0 3500 l0 -3500 3500 0 3500 0 -2 3498 -3 3497 -3497 3 -3498 2 0
-3500z m3885 2922 c619 -97 1131 -336 1595 -747 220 -194 457 -488 604 -750
40 -70 19 -46 -52 61 -146 219 -354 446 -562 613 -287 231 -652 419 -1000 516
-541 150 -1122 134 -1650 -47 -917 -314 -1616 -1091 -1823 -2028 -50 -224 -61
-336 -61 -610 -1 -274 10 -385 60 -608 183 -824 747 -1535 1509 -1902 390
-187 767 -273 1205 -274 236 0 340 9 551 50 718 138 1367 571 1776 1182 74
112 88 128 48 57 -151 -270 -393 -568 -623 -768 -457 -399 -967 -636 -1566
-729 -168 -26 -552 -36 -723 -18 -721 73 -1353 370 -1858 875 -903 903 -1139
2279 -589 3435 419 880 1241 1506 2199 1676 195 35 316 43 575 39 192 -2 287
-8 385 -23z m40 -352 c648 -55 1213 -317 1671 -774 303 -304 512 -643 644
-1044 79 -241 118 -467 127 -738 25 -736 -250 -1433 -772 -1957 -413 -415
-934 -671 -1540 -759 -120 -17 -561 -17 -675 0 -331 50 -574 126 -850 263
-332 166 -650 421 -873 699 -63 78 -218 303 -246 358 -23 43 -3 21 40 -45 228
-351 579 -654 984 -849 746 -359 1632 -310 2344 131 386 239 693 579 901 997
123 249 197 495 236 788 22 170 15 513 -15 685 -116 677 -493 1259 -1066 1643
-302 202 -714 352 -1077 391 -143 16 -438 13 -575 -4 -688 -90 -1294 -453
-1694 -1015 -87 -122 -92 -128 -68 -85 128 233 369 518 596 707 532 442 1230
665 1908 608z m-1782 -1392 c3 -24 25 -259 48 -523 32 -349 46 -469 51 -440 4
22 28 243 53 490 25 248 48 465 51 483 l5 32 204 0 c204 0 205 0 210 -22 2
-13 32 -241 65 -508 34 -267 62 -489 64 -495 5 -17 15 106 41 520 14 220 28
424 31 453 l5 52 230 0 c229 0 229 0 229 -22 0 -23 -296 -2638 -306 -2700 l-6
-38 -203 0 -203 0 -6 27 c-3 16 -33 246 -66 513 -34 267 -64 493 -68 503 -4
10 -38 -211 -75 -495 -38 -282 -71 -521 -73 -531 -5 -16 -21 -17 -207 -15
l-201 3 -152 1325 c-84 729 -155 1349 -159 1378 l-6 52 219 0 219 0 6 -42z
m3167 -988 l0 -1030 -515 0 -515 0 0 -350 0 -350 -285 0 -285 0 0 1380 0 1380
800 0 800 0 0 -1030z"/>
<path d="M4285 4188 c-3 -7 -4 -236 -3 -508 l3 -495 225 0 225 0 0 505 0 505
-223 3 c-172 2 -224 0 -227 -10z"/>
</g>
</svg>
